<?xml version="1.0" ?><!DOCTYPE svg  PUBLIC '-//W3C//DTD SVG 1.1//EN'  'http://www.w3.org/Graphics/SVG/1.1/DTD/svg11.dtd'><svg enable-background="new 0 0 489.597 524.424" height="524.424" id="レイヤー_1" overflow="visible" version="1.1" viewBox="0 0 489.597 524.424" width="489.597" xml:space="preserve" xmlns="http://www.w3.org/2000/svg" xmlns:xlink="http://www.w3.org/1999/xlink"><g id="ホーム"><g><polygon opacity="0.39" points="354.503,259.532 354.503,469.719 110.047,469.719 110.047,266.787 100.161,253.822     233.366,127.26 355.337,250.735 352.386,259.532   "/><polygon opacity="0.39" points="232.773,97.249 429.097,286.057 400.726,313.341 231.865,150.945 63.116,313.232 34.746,285.948     231.07,97.14 231.978,98.013   "/></g><polygon fill="#FFFFFF" points="384.406,226.984 384.406,440.333    123.677,440.333 123.677,234.346 113.133,221.186 255.205,92.719 385.294,218.053 382.148,226.984  " stroke="#000000" stroke-linejoin="round" stroke-width="18"/><polygon fill="#A8A8A8" points="250.455,61.093 454.335,264.976    424.875,294.438 249.511,119.076 74.266,294.321 44.804,264.858 248.686,60.975 249.628,61.918  " stroke="#000000" stroke-linejoin="round" stroke-width="18"/><rect fill="#A8A8A8" height="146.318" stroke="#000000" stroke-linejoin="round" stroke-width="15" width="89.506" x="288.453" y="295.549"/><circle cx="346.404" cy="381.833" fill="#FFFFFF" r="10" stroke="#000000" stroke-linejoin="round" stroke-width="10"/><g><rect fill="#FFFFFF" height="88.27" stroke="#000000" stroke-linejoin="round" stroke-width="6" width="88.27" x="164.578" y="237.008"/><g><g><rect fill="#FFFFFF" height="68.063" id="XMLID_612_" width="68.063" x="175.213" y="246.579"/></g><g><defs><rect height="68.063" id="XMLID_725_" width="68.063" x="175.213" y="246.579"/></defs><clipPath id="XMLID_757_"><use xlink:href="#XMLID_725_"/></clipPath><line clip-path="url(#XMLID_757_)" fill="#FFFFFF" stroke="#000000" stroke-linejoin="round" stroke-width="10" x1="208.181" x2="208.181" y1="232.754" y2="334.871"/></g><g><defs><rect height="68.063" id="XMLID_727_" width="68.063" x="175.213" y="246.579"/></defs><clipPath id="XMLID_758_"><use xlink:href="#XMLID_727_"/></clipPath><line clip-path="url(#XMLID_758_)" fill="#FFFFFF" stroke="#000000" stroke-linejoin="round" stroke-width="10" x1="160.324" x2="258.188" y1="281.675" y2="281.675"/></g><g><rect fill="none" height="68.063" id="XMLID_231_" stroke="#000000" stroke-linejoin="round" stroke-width="10" width="68.063" x="175.213" y="246.579"/></g></g></g></g></svg>