<?xml version="1.0" encoding="iso-8859-1"?>
<!-- Generator: Adobe Illustrator 18.1.1, SVG Export Plug-In . SVG Version: 6.00 Build 0)  -->
<svg version="1.1" id="Capa_1" xmlns="http://www.w3.org/2000/svg" xmlns:xlink="http://www.w3.org/1999/xlink" x="0px" y="0px"
	 viewBox="0 0 256 256" style="enable-background:new 0 0 256 256;" xml:space="preserve">
<g>
	<path id="circle29337" d="M127.984,0c-41.362,0-75,33.638-75,75c0,0.002,0,0.004,0,0.006c0.036,28.459,16.165,53.901,40.695,66.535
		c-34.96,11.438-64.48,39.915-80.311,78.852C13.126,220.99,13,221.63,13,222.275V251c0,2.761,2.239,5,5,5h220c2.761,0,5-2.239,5-5
		v-28.725c0-0.646-0.126-1.285-0.369-1.883c-15.825-38.921-45.325-67.389-80.266-78.836c24.509-12.659,40.606-38.107,40.619-66.555
		c0-0.001,0-0.001,0-0.002C202.984,33.638,169.347,0,127.984,0z M127.984,10c35.957,0,64.999,29.041,65,64.998
		c-0.013,29.456-19.777,55.175-48.236,62.771c-2.668,0.713-4.253,3.454-3.54,6.122c0.502,1.879,2.048,3.297,3.964,3.634
		c37.588,6.607,70.749,34.541,87.828,75.854V246H23v-22.621c17.094-41.347,50.296-69.295,87.926-75.873
		c2.72-0.476,4.54-3.067,4.064-5.787c-0.336-1.922-1.76-3.473-3.646-3.973c-28.5-7.547-48.32-33.265-48.359-62.746v-0.004v-0.002
		C62.988,39.039,92.029,10,127.984,10z M127.984,17.498c-31.905,0-57.5,25.595-57.5,57.5c-0.02,1.381,1.084,2.516,2.465,2.535
		c1.381,0.02,2.516-1.084,2.535-2.465c0-0.024,0-0.047,0-0.071c0-29.241,23.258-52.5,52.5-52.5c1.381,0.02,2.516-1.084,2.535-2.465
		s-1.084-2.516-2.465-2.535C128.032,17.498,128.008,17.498,127.984,17.498z M222.947,218.465c-1.38,0.02-2.482,1.155-2.463,2.535
		v12.5h-47.5c-1.381-0.02-2.516,1.084-2.535,2.465s1.084,2.516,2.465,2.535c0.024,0,0.047,0,0.071,0h50c1.381,0,2.5-1.119,2.5-2.5
		v-15c0.019-1.381-1.084-2.516-2.465-2.535C222.995,218.464,222.971,218.464,222.947,218.465z"/>
</g>
<g>
</g>
<g>
</g>
<g>
</g>
<g>
</g>
<g>
</g>
<g>
</g>
<g>
</g>
<g>
</g>
<g>
</g>
<g>
</g>
<g>
</g>
<g>
</g>
<g>
</g>
<g>
</g>
<g>
</g>
</svg>
